<svg width="64" height="64" viewBox="0 0 64 64" fill="none" xmlns="http://www.w3.org/2000/svg">
<path d="M60 20C59.4747 19.9999 58.9545 20.1032 58.4691 20.3042C57.9837 20.5051 57.5427 20.7998 57.1712 21.1712C56.7998 21.5427 56.5051 21.9837 56.3042 22.4691C56.1032 22.9545 55.9999 23.4747 56 24C56.0021 24.9487 56.3465 25.8649 56.97 26.58L56.05 44H51V42.65C51.6474 41.542 51.9922 40.2833 52 39V34C51.9977 33.2051 51.6809 32.4433 51.1188 31.8812C50.5567 31.3191 49.7949 31.0023 49 31H48V27.86C48.8565 27.6389 49.6155 27.1401 50.1583 26.4417C50.7012 25.7432 50.9972 24.8846 51 24V21C50.9992 20.735 50.8936 20.4811 50.7062 20.2938C50.5189 20.1064 50.265 20.0008 50 20H44C43.735 20.0008 43.4811 20.1064 43.2938 20.2938C43.1064 20.4811 43.0008 20.735 43 21V24C43.0028 24.8846 43.2988 25.7432 43.8417 26.4417C44.3845 27.1401 45.1435 27.6389 46 27.86V31H42V30C41.9987 27.5213 41.0774 25.1314 39.4147 23.2931C37.752 21.4549 35.4661 20.2992 33 20.05V19C33 18.7348 32.8946 18.4804 32.7071 18.2929C32.5196 18.1054 32.2652 18 32 18C31.7348 18 31.4804 18.1054 31.2929 18.2929C31.1054 18.4804 31 18.7348 31 19V20.05C28.5339 20.2992 26.248 21.4549 24.5853 23.2931C22.9226 25.1314 22.0013 27.5213 22 30V31H18V27.86C18.8565 27.6389 19.6155 27.1401 20.1583 26.4417C20.7012 25.7432 20.9972 24.8846 21 24V21C20.9992 20.735 20.8936 20.4811 20.7062 20.2938C20.5189 20.1064 20.265 20.0008 20 20H14C13.735 20.0008 13.4811 20.1064 13.2938 20.2938C13.1064 20.4811 13.0008 20.735 13 21V24C13.0029 24.8846 13.2988 25.7432 13.8417 26.4417C14.3845 27.1401 15.1435 27.6389 16 27.86V31H15C14.2051 31.0023 13.4433 31.3191 12.8812 31.8812C12.3191 32.4433 12.0023 33.2051 12 34V39C12.0078 40.2833 12.3526 41.542 13 42.65V44H7.95L7.03 26.58C7.65346 25.8649 7.99789 24.9487 8 24C8.00419 23.3517 7.85075 22.7121 7.55287 22.1363C7.255 21.5604 6.82163 21.0656 6.29007 20.6945C5.75852 20.3233 5.14472 20.0869 4.50152 20.0056C3.85832 19.9243 3.20501 20.0006 2.59783 20.2279C1.99065 20.4551 1.44781 20.8266 1.01605 21.3102C0.584287 21.7938 0.276547 22.3751 0.119327 23.0041C-0.0378935 23.633 -0.0398814 24.2908 0.113534 24.9207C0.266949 25.5506 0.57117 26.1338 1 26.62V63C1.00079 63.265 1.1064 63.5189 1.29377 63.7062C1.48113 63.8936 1.73503 63.9992 2 64H6C6.26497 63.9992 6.51887 63.8936 6.70623 63.7062C6.8936 63.5189 6.99921 63.265 7 63V51H13V63C13.0008 63.265 13.1064 63.5189 13.2938 63.7062C13.4811 63.8936 13.735 63.9992 14 64H22C22.265 63.9992 22.5189 63.8936 22.7062 63.7062C22.8936 63.5189 22.9992 63.265 23 63V46.77C24.2541 46.5331 25.4457 46.0394 26.5 45.32C28.1252 46.415 30.0403 47 32 47C33.9597 47 35.8748 46.415 37.5 45.32C38.5543 46.0394 39.7459 46.5331 41 46.77V63C41.0008 63.265 41.1064 63.5189 41.2938 63.7062C41.4811 63.8936 41.735 63.9992 42 64H50C50.265 63.9992 50.5189 63.8936 50.7062 63.7062C50.8936 63.5189 50.9992 63.265 51 63V51H57V63C57.0008 63.265 57.1064 63.5189 57.2938 63.7062C57.4811 63.8936 57.735 63.9992 58 64H62C62.265 63.9992 62.5189 63.8936 62.7062 63.7062C62.8936 63.5189 62.9992 63.265 63 63V26.62C63.5093 26.0446 63.8412 25.3342 63.9556 24.5743C64.0701 23.8145 63.9622 23.0378 63.6451 22.3379C63.3279 21.638 62.815 21.0449 62.1682 20.63C61.5214 20.2152 60.7684 19.9964 60 20ZM2 24C2 23.6044 2.1173 23.2178 2.33706 22.8889C2.55682 22.56 2.86918 22.3036 3.23463 22.1522C3.60009 22.0009 4.00222 21.9613 4.39018 22.0384C4.77814 22.1156 5.13451 22.3061 5.41421 22.5858C5.69392 22.8655 5.8844 23.2219 5.96157 23.6098C6.03874 23.9978 5.99913 24.3999 5.84776 24.7654C5.69638 25.1308 5.44004 25.4432 5.11114 25.6629C4.78224 25.8827 4.39556 26 4 26C3.47005 25.9984 2.96224 25.7872 2.58751 25.4125C2.21277 25.0378 2.00156 24.53 2 24ZM5.95 44H3V27.86C3.32627 27.9478 3.66216 27.9948 4 28C4.3695 27.9947 4.73643 27.9375 5.09 27.83L5.95 44ZM5 62H3V51H5V62ZM13 49H3V46H13V49ZM45 24V22H49V24C49 24.5304 48.7893 25.0391 48.4142 25.4142C48.0391 25.7893 47.5304 26 47 26C46.4696 26 45.9609 25.7893 45.5858 25.4142C45.2107 25.0391 45 24.5304 45 24ZM24 30C24 27.8783 24.8429 25.8434 26.3431 24.3431C27.8434 22.8429 29.8783 22 32 22C34.1217 22 36.1566 22.8429 37.6569 24.3431C39.1571 25.8434 40 27.8783 40 30V31H24V30ZM15 24V22H19V24C19 24.5304 18.7893 25.0391 18.4142 25.4142C18.0391 25.7893 17.5304 26 17 26C16.4696 26 15.9609 25.7893 15.5858 25.4142C15.2107 25.0391 15 24.5304 15 24ZM17 62H15V44.95C15.6134 45.4355 16.2853 45.842 17 46.16V62ZM21 62H19V51H21V62ZM21 49H19V46.79C19.658 46.9267 20.328 46.9971 21 47V49ZM45 62H43V51H45V62ZM45 49H43V47C43.672 46.9971 44.342 46.9267 45 46.79V49ZM49 62H47V46.16C47.7147 45.842 48.3866 45.4355 49 44.95V62ZM50 36H45C44.7348 36 44.4804 36.1054 44.2929 36.2929C44.1054 36.4804 44 36.7348 44 37C44 37.2652 44.1054 37.5196 44.2929 37.7071C44.4804 37.8946 44.7348 38 45 38H50V39C50 42.31 46.86 45 43 45C41.2311 45.0189 39.5115 44.4174 38.14 43.3C37.9599 43.1513 37.7336 43.07 37.5 43.07C37.2664 43.07 37.0401 43.1513 36.86 43.3C35.4792 44.4006 33.7658 45 32 45C30.2342 45 28.5208 44.4006 27.14 43.3C26.9606 43.1498 26.734 43.0675 26.5 43.0675C26.266 43.0675 26.0394 43.1498 25.86 43.3C24.4885 44.4174 22.7689 45.0189 21 45C17.14 45 14 42.31 14 39V38H41C41.2652 38 41.5196 37.8946 41.7071 37.7071C41.8946 37.5196 42 37.2652 42 37C42 36.7348 41.8946 36.4804 41.7071 36.2929C41.5196 36.1054 41.2652 36 41 36H14V34C14.0008 33.735 14.1064 33.4811 14.2938 33.2938C14.4811 33.1064 14.735 33.0008 15 33H49C49.265 33.0008 49.5189 33.1064 49.7062 33.2938C49.8936 33.4811 49.9992 33.735 50 34V36ZM61 62H59V51H61V62ZM61 49H51V46H61V49ZM61 44H58.05L58.91 27.83C59.2636 27.9375 59.6305 27.9947 60 28C60.3378 27.9948 60.6737 27.9478 61 27.86V44ZM60 26C59.6044 26 59.2178 25.8827 58.8889 25.6629C58.56 25.4432 58.3036 25.1308 58.1522 24.7654C58.0009 24.3999 57.9613 23.9978 58.0384 23.6098C58.1156 23.2219 58.3061 22.8655 58.5858 22.5858C58.8655 22.3061 59.2219 22.1156 59.6098 22.0384C59.9978 21.9613 60.3999 22.0009 60.7654 22.1522C61.1308 22.3036 61.4432 22.56 61.6629 22.8889C61.8827 23.2178 62 23.6044 62 24C61.9984 24.53 61.7872 25.0378 61.4125 25.4125C61.0378 25.7872 60.53 25.9984 60 26Z" fill="black"/>
<path d="M22 15H42C42.1313 15 42.2614 14.9742 42.3827 14.9239C42.5041 14.8737 42.6143 14.8 42.7072 14.7072C42.8 14.6143 42.8737 14.5041 42.924 14.3827C42.9742 14.2614 43 14.1313 43 14C42.9962 11.2574 41.9689 8.61485 40.1194 6.5897C38.2698 4.56455 35.7311 3.30254 33 3.05066V1C33 0.734784 32.8946 0.48043 32.7071 0.292893C32.5196 0.105357 32.2652 0 32 0C31.7348 0 31.4804 0.105357 31.2929 0.292893C31.1054 0.48043 31 0.734784 31 1V3.05066C28.2689 3.30254 25.7302 4.56455 23.8806 6.5897C22.0311 8.61485 21.0038 11.2574 21 14C21 14.1313 21.0258 14.2614 21.0761 14.3827C21.1263 14.5041 21.2 14.6143 21.2928 14.7072C21.3857 14.8 21.4959 14.8737 21.6173 14.9239C21.7386 14.9742 21.8687 15 22 15ZM32 5C34.213 5.00273 36.3477 5.8196 37.9972 7.29495C39.6467 8.7703 40.6957 10.801 40.9443 13H23.0557C23.3043 10.801 24.3533 8.7703 26.0028 7.29495C27.6523 5.8196 29.787 5.00273 32 5Z" fill="black"/>
</svg>
