<svg width="60" height="64" viewBox="0 0 60 64" fill="none" xmlns="http://www.w3.org/2000/svg">
<path d="M17.3501 58H2V10H40V30.0801C40 30.3453 40.1054 30.5997 40.2929 30.7872C40.4804 30.9747 40.7348 31.0801 41 31.0801C41.2652 31.0801 41.5196 30.9747 41.7071 30.7872C41.8946 30.5997 42 30.3453 42 30.0801V9C42 8.73479 41.8946 8.48043 41.7071 8.2929C41.5196 8.10536 41.2652 8 41 8H38V1C38 0.850267 37.9664 0.702436 37.9016 0.567429C37.8369 0.432422 37.7426 0.313688 37.6258 0.219993C37.509 0.126299 37.3727 0.0600377 37.2268 0.0261033C37.081 -0.00783112 36.9294 -0.00857222 36.7832 0.0239347L0.7832 8.02393C0.566545 8.08351 0.37421 8.20993 0.233587 8.38518C0.092963 8.56043 0.0112206 8.77559 0 9V59C0 59.2652 0.105357 59.5196 0.292893 59.7071C0.48043 59.8946 0.734784 60 1 60H17.3501C17.6153 60 17.8697 59.8946 18.0572 59.7071C18.2447 59.5196 18.3501 59.2652 18.3501 59C18.3501 58.7348 18.2447 58.4804 18.0572 58.2929C17.8697 58.1054 17.6153 58 17.3501 58ZM36 8H10.1093L36 2.24658V8Z" fill="black"/>
<path d="M37 31.6802C37.2652 31.6802 37.5196 31.5748 37.7071 31.3873C37.8946 31.1997 38 30.9454 38 30.6802V18C38 17.7348 37.8946 17.4804 37.7071 17.2929C37.5196 17.1054 37.2652 17 37 17C35.9395 16.9988 34.9228 16.577 34.1729 15.8271C33.423 15.0772 33.0012 14.0605 33 13C33 12.7348 32.8946 12.4804 32.7071 12.2929C32.5196 12.1054 32.2652 12 32 12H10C9.73478 12 9.48043 12.1054 9.29289 12.2929C9.10536 12.4804 9 12.7348 9 13C8.99879 14.0605 8.57697 15.0772 7.82709 15.8271C7.07721 16.577 6.06049 16.9988 5 17C4.73478 17 4.48043 17.1054 4.29289 17.2929C4.10536 17.4804 4 17.7348 4 18V50C4 50.2652 4.10536 50.5196 4.29289 50.7071C4.48043 50.8946 4.73478 51 5 51C6.06049 51.0012 7.07721 51.423 7.82709 52.1729C8.57697 52.9228 8.99879 53.9395 9 55C9 55.2652 9.10536 55.5196 9.29289 55.7071C9.48043 55.8946 9.73478 56 10 56H20C20.2652 56 20.5196 55.8946 20.7071 55.7071C20.8946 55.5196 21 55.2652 21 55C21 54.7348 20.8946 54.4804 20.7071 54.2929C20.5196 54.1054 20.2652 54 20 54H10.9165C10.7069 52.7723 10.1213 51.64 9.24066 50.7593C8.36 49.8787 7.22767 49.2931 6 49.0835V18.9165C7.22767 18.7069 8.36 18.1213 9.24066 17.2407C10.1213 16.36 10.7069 15.2277 10.9165 14H31.0835C31.2931 15.2277 31.8787 16.36 32.7593 17.2407C33.64 18.1213 34.7723 18.7069 36 18.9165V30.6802C36 30.9454 36.1054 31.1997 36.2929 31.3873C36.4804 31.5748 36.7348 31.6802 37 31.6802Z" fill="black"/>
<path d="M57 58V55C56.9933 51.1908 55.7086 47.494 53.3516 44.5015C50.9946 41.509 47.7016 39.394 44 38.495V37C44 35.9391 43.5786 34.9217 42.8284 34.1716C42.0783 33.4214 41.0609 33 40 33C38.9391 33 37.9217 33.4214 37.1716 34.1716C36.4214 34.9217 36 35.9391 36 37V38.495C32.2984 39.394 29.0054 41.509 26.6484 44.5015C24.2914 47.494 23.0067 51.1908 23 55V58C22.2044 58 21.4413 58.3161 20.8787 58.8787C20.3161 59.4413 20 60.2044 20 61C20 61.7956 20.3161 62.5587 20.8787 63.1213C21.4413 63.6839 22.2044 64 23 64H57C57.7957 64 58.5587 63.6839 59.1213 63.1213C59.6839 62.5587 60 61.7956 60 61C60 60.2044 59.6839 59.4413 59.1213 58.8787C58.5587 58.3161 57.7957 58 57 58ZM38 37C38 36.4696 38.2107 35.9609 38.5858 35.5858C38.9609 35.2107 39.4696 35 40 35C40.5304 35 41.0391 35.2107 41.4142 35.5858C41.7893 35.9609 42 36.4696 42 37V38.1284C40.6722 37.9572 39.3278 37.9572 38 38.1284V37ZM25 56H48C48.2652 56 48.5196 55.8946 48.7071 55.7071C48.8946 55.5196 49 55.2652 49 55C49 54.7348 48.8946 54.4804 48.7071 54.2929C48.5196 54.1054 48.2652 54 48 54H25.0507C25.2999 50.2047 26.9832 46.6463 29.7594 44.0465C32.5355 41.4467 36.1966 40 40 40C43.8034 40 47.4645 41.4467 50.2406 44.0465C53.0168 46.6463 54.7001 50.2047 54.9493 54H52C51.7348 54 51.4804 54.1054 51.2929 54.2929C51.1054 54.4804 51 54.7348 51 55C51 55.2652 51.1054 55.5196 51.2929 55.7071C51.4804 55.8946 51.7348 56 52 56H55V58H25V56ZM57 62H23C22.7348 62 22.4804 61.8946 22.2929 61.7071C22.1054 61.5196 22 61.2652 22 61C22 60.7348 22.1054 60.4804 22.2929 60.2929C22.4804 60.1054 22.7348 60 23 60H57C57.2652 60 57.5196 60.1054 57.7071 60.2929C57.8946 60.4804 58 60.7348 58 61C58 61.2652 57.8946 61.5196 57.7071 61.7071C57.5196 61.8946 57.2652 62 57 62Z" fill="black"/>
<path d="M23 16C22.7348 16 22.4804 16.1054 22.2929 16.2929C22.1054 16.4804 22 16.7348 22 17V20C22.0027 20.8844 22.2986 21.7429 22.8415 22.441C23.3844 23.1392 24.1435 23.6375 25 23.858V29C25 29.2652 25.1054 29.5196 25.2929 29.7071C25.4804 29.8946 25.7348 30 26 30C26.2652 30 26.5196 29.8946 26.7071 29.7071C26.8946 29.5196 27 29.2652 27 29V23.858C27.8565 23.6375 28.6156 23.1392 29.1585 22.441C29.7014 21.7429 29.9973 20.8844 30 20V17C30 16.7348 29.8946 16.4804 29.7071 16.2929C29.5196 16.1054 29.2652 16 29 16C28.7348 16 28.4804 16.1054 28.2929 16.2929C28.1054 16.4804 28 16.7348 28 17V20C27.9989 20.3495 27.9059 20.6925 27.7304 20.9948C27.5549 21.297 27.303 21.5477 27 21.7219V17C27 16.7348 26.8946 16.4804 26.7071 16.2929C26.5196 16.1054 26.2652 16 26 16C25.7348 16 25.4804 16.1054 25.2929 16.2929C25.1054 16.4804 25 16.7348 25 17V21.7219C24.697 21.5477 24.4451 21.297 24.2696 20.9948C24.0941 20.6925 24.0011 20.3495 24 20V17C24 16.7348 23.8946 16.4804 23.7071 16.2929C23.5196 16.1054 23.2652 16 23 16Z" fill="black"/>
<path d="M16 30C16.2652 30 16.5196 29.8946 16.7071 29.7071C16.8946 29.5196 17 29.2652 17 29V24.858C17.8565 24.6375 18.6156 24.1392 19.1585 23.441C19.7014 22.7429 19.9973 21.8844 20 21C20 19.0093 18.4048 16 16 16C13.5952 16 12 19.0093 12 21C12.0027 21.8844 12.2986 22.7429 12.8415 23.441C13.3844 24.1392 14.1435 24.6375 15 24.858V29C15 29.2652 15.1054 29.5196 15.2929 29.7071C15.4804 29.8946 15.7348 30 16 30ZM14 21C14 19.7607 15.0342 18 16 18C16.9658 18 18 19.7607 18 21C18 21.5304 17.7893 22.0391 17.4142 22.4142C17.0391 22.7893 16.5304 23 16 23C15.4696 23 14.9609 22.7893 14.5858 22.4142C14.2107 22.0391 14 21.5304 14 21Z" fill="black"/>
<path d="M13 33H11C10.7348 33 10.4804 33.1054 10.2929 33.2929C10.1054 33.4804 10 33.7348 10 34C10 34.2652 10.1054 34.5196 10.2929 34.7071C10.4804 34.8946 10.7348 35 11 35H13C13.2652 35 13.5196 34.8946 13.7071 34.7071C13.8946 34.5196 14 34.2652 14 34C14 33.7348 13.8946 33.4804 13.7071 33.2929C13.5196 33.1054 13.2652 33 13 33Z" fill="black"/>
<path d="M32 34C32 33.7348 31.8946 33.4804 31.7071 33.2929C31.5196 33.1054 31.2652 33 31 33H17C16.7348 33 16.4804 33.1054 16.2929 33.2929C16.1054 33.4804 16 33.7348 16 34C16 34.2652 16.1054 34.5196 16.2929 34.7071C16.4804 34.8946 16.7348 35 17 35H31C31.2652 35 31.5196 34.8946 31.7071 34.7071C31.8946 34.5196 32 34.2652 32 34Z" fill="black"/>
<path d="M13 38H11C10.7348 38 10.4804 38.1054 10.2929 38.2929C10.1054 38.4804 10 38.7348 10 39C10 39.2652 10.1054 39.5196 10.2929 39.7071C10.4804 39.8946 10.7348 40 11 40H13C13.2652 40 13.5196 39.8946 13.7071 39.7071C13.8946 39.5196 14 39.2652 14 39C14 38.7348 13.8946 38.4804 13.7071 38.2929C13.5196 38.1054 13.2652 38 13 38Z" fill="black"/>
<path d="M28 39C28 38.7348 27.8946 38.4804 27.7071 38.2929C27.5196 38.1054 27.2652 38 27 38H17C16.7348 38 16.4804 38.1054 16.2929 38.2929C16.1054 38.4804 16 38.7348 16 39C16 39.2652 16.1054 39.5196 16.2929 39.7071C16.4804 39.8946 16.7348 40 17 40H27C27.2652 40 27.5196 39.8946 27.7071 39.7071C27.8946 39.5196 28 39.2652 28 39Z" fill="black"/>
<path d="M13 43H11C10.7348 43 10.4804 43.1054 10.2929 43.2929C10.1054 43.4804 10 43.7348 10 44C10 44.2652 10.1054 44.5196 10.2929 44.7071C10.4804 44.8946 10.7348 45 11 45H13C13.2652 45 13.5196 44.8946 13.7071 44.7071C13.8946 44.5196 14 44.2652 14 44C14 43.7348 13.8946 43.4804 13.7071 43.2929C13.5196 43.1054 13.2652 43 13 43Z" fill="black"/>
<path d="M24 44C24 43.7348 23.8946 43.4804 23.7071 43.2929C23.5196 43.1054 23.2652 43 23 43H17C16.7348 43 16.4804 43.1054 16.2929 43.2929C16.1054 43.4804 16 43.7348 16 44C16 44.2652 16.1054 44.5196 16.2929 44.7071C16.4804 44.8946 16.7348 45 17 45H23C23.2652 45 23.5196 44.8946 23.7071 44.7071C23.8946 44.5196 24 44.2652 24 44Z" fill="black"/>
<path d="M13 48H11C10.7348 48 10.4804 48.1054 10.2929 48.2929C10.1054 48.4804 10 48.7348 10 49C10 49.2652 10.1054 49.5196 10.2929 49.7071C10.4804 49.8946 10.7348 50 11 50H13C13.2652 50 13.5196 49.8946 13.7071 49.7071C13.8946 49.5196 14 49.2652 14 49C14 48.7348 13.8946 48.4804 13.7071 48.2929C13.5196 48.1054 13.2652 48 13 48Z" fill="black"/>
<path d="M17 48C16.7348 48 16.4804 48.1054 16.2929 48.2929C16.1054 48.4804 16 48.7348 16 49C16 49.2652 16.1054 49.5196 16.2929 49.7071C16.4804 49.8946 16.7348 50 17 50H19C19.2652 50 19.5196 49.8946 19.7071 49.7071C19.8946 49.5196 20 49.2652 20 49C20 48.7348 19.8946 48.4804 19.7071 48.2929C19.5196 48.1054 19.2652 48 19 48H17Z" fill="black"/>
<path d="M5 14C5.55228 14 6 13.5523 6 13C6 12.4477 5.55228 12 5 12C4.44772 12 4 12.4477 4 13C4 13.5523 4.44772 14 5 14Z" fill="black"/>
<path d="M37 14C37.5523 14 38 13.5523 38 13C38 12.4477 37.5523 12 37 12C36.4477 12 36 12.4477 36 13C36 13.5523 36.4477 14 37 14Z" fill="black"/>
<path d="M5 56C5.55228 56 6 55.5523 6 55C6 54.4477 5.55228 54 5 54C4.44772 54 4 54.4477 4 55C4 55.5523 4.44772 56 5 56Z" fill="black"/>
</svg>
