<svg width="64" height="64" viewBox="0 0 64 64" fill="none" xmlns="http://www.w3.org/2000/svg">
<path d="M63.4478 6.106L63.1353 5.94926C62.1072 5.43603 61.2026 4.70618 60.4836 3.80991C59.7646 2.91364 59.2483 1.87223 58.9702 0.757359C58.9161 0.541028 58.7912 0.348996 58.6154 0.211778C58.4396 0.0745609 58.223 3.05176e-05 58 3.05176e-05C57.777 3.05176e-05 57.5604 0.0745609 57.3846 0.211778C57.2089 0.348996 57.084 0.541028 57.0298 0.757359C56.7517 1.87234 56.2353 2.91383 55.5163 3.81018C54.7972 4.70653 53.8924 5.43646 52.8643 5.94975L52.5523 6.106C52.3863 6.18908 52.2468 6.31671 52.1492 6.47461C52.0517 6.63251 52.0001 6.81445 52.0001 7.00004C52.0001 7.18563 52.0517 7.36756 52.1492 7.52546C52.2468 7.68336 52.3863 7.811 52.5523 7.89408L52.8648 8.05082C53.8928 8.56404 54.7975 9.2939 55.5165 10.1902C56.2355 11.0864 56.7518 12.1278 57.0298 13.2427C57.0839 13.4591 57.2088 13.6511 57.3846 13.7883C57.5604 13.9255 57.777 14 58 14C58.223 14 58.4396 13.9255 58.6154 13.7883C58.7912 13.6511 58.9161 13.4591 58.9702 13.2427C59.2483 12.1277 59.7647 11.0862 60.4838 10.1899C61.2029 9.29355 62.1076 8.56362 63.1357 8.05033L63.4478 7.89408C63.6137 7.811 63.7533 7.68336 63.8508 7.52546C63.9483 7.36756 64 7.18563 64 7.00004C64 6.81445 63.9483 6.63251 63.8508 6.47461C63.7533 6.31671 63.6137 6.18908 63.4478 6.106ZM58 10.3086C57.2642 8.9929 56.239 7.86156 55.002 7C56.2391 6.13857 57.2643 5.00721 58 3.69141C58.7359 5.00711 59.761 6.13844 60.9981 7C59.7609 7.86142 58.7357 8.99278 58 10.3086Z" fill="white"/>
<path d="M6.97021 18.2427C7.24833 17.1277 7.7647 16.0862 8.48378 15.1899C9.20287 14.2935 10.1076 13.5636 11.1357 13.0503L11.4477 12.894C11.6137 12.811 11.7533 12.6833 11.8508 12.5254C11.9483 12.3675 12 12.1856 12 12C12 11.8144 11.9483 11.6325 11.8508 11.4746C11.7533 11.3167 11.6137 11.189 11.4477 11.106L11.1352 10.9492C10.1072 10.436 9.20256 9.70614 8.48357 8.80987C7.76457 7.9136 7.24828 6.8722 6.97024 5.75732C6.9161 5.54099 6.79121 5.34896 6.61543 5.21174C6.43964 5.07452 6.22303 4.99999 6.00003 4.99999C5.77703 4.99999 5.56042 5.07452 5.38463 5.21174C5.20884 5.34896 5.08396 5.54099 5.02982 5.75732C4.7517 6.8723 4.23532 7.9138 3.51623 8.81015C2.79714 9.7065 1.8924 10.4364 0.864259 10.9497L0.552259 11.106C0.386298 11.189 0.246739 11.3167 0.149205 11.4746C0.0516704 11.6325 1.14441e-05 11.8144 1.14441e-05 12C1.14441e-05 12.1856 0.0516704 12.3675 0.149205 12.5254C0.246739 12.6833 0.386298 12.811 0.552259 12.894L0.864759 13.0508C1.89279 13.564 2.79743 14.2939 3.51643 15.1901C4.23543 16.0864 4.75171 17.1278 5.02976 18.2427C5.0839 18.459 5.20878 18.651 5.38457 18.7883C5.56036 18.9255 5.77697 19 5.99997 19C6.22297 19 6.43958 18.9255 6.61537 18.7883C6.79115 18.651 6.91607 18.459 6.97021 18.2427ZM3.002 12C4.23914 11.1386 5.2643 10.0072 6 8.69141C6.73585 10.0071 7.76098 11.1384 8.998 12C7.76086 12.8614 6.7357 13.9928 6 15.3086C5.26415 13.9929 4.23902 12.8616 3.002 12Z" fill="white"/>
<path d="M55 30V29C54.9927 23.7629 53.201 18.6846 49.9205 14.6023C46.6399 10.52 42.0663 7.67742 36.9535 6.54309C36.979 6.36305 36.9945 6.18175 37 6C37 4.67392 36.4732 3.40215 35.5355 2.46447C34.5979 1.52678 33.3261 1 32 1C30.6739 1 29.4021 1.52678 28.4645 2.46447C27.5268 3.40215 27 4.67392 27 6C27.0055 6.18175 27.021 6.36305 27.0465 6.54309C21.9337 7.67742 17.3601 10.52 14.0795 14.6023C10.799 18.6846 9.00733 23.7629 9 29V30C8.20462 30.0009 7.44206 30.3172 6.87964 30.8796C6.31722 31.4421 6.00087 32.2046 6 33V34C6.00087 34.7954 6.31722 35.5579 6.87964 36.1204C7.44206 36.6828 8.20462 36.9991 9 37H15.227C15.225 37.1329 15.236 37.2657 15.2598 37.3965L16.8779 45.4878C15.8054 46.1622 14.8996 47.0709 14.2285 48.1455C13.4262 49.4454 13.0009 50.9427 13 52.4702V52.7632L11.807 55.1417L11.1963 55.0196C11.0513 54.9905 10.9015 54.994 10.758 55.0298C10.6144 55.0656 10.4806 55.1329 10.3661 55.2267C10.2517 55.3204 10.1595 55.4385 10.0962 55.5722C10.0329 55.7059 10 55.852 10 56V63C10 63.2652 10.1054 63.5196 10.2929 63.7071C10.4804 63.8946 10.7348 64 11 64H31C31.2652 64 31.5196 63.8946 31.7071 63.7071C31.8946 63.5196 32 63.2652 32 63V60C31.9984 59.8659 31.9694 59.7336 31.9149 59.6111C31.8604 59.4886 31.7815 59.3785 31.683 59.2875L40.5883 52.8086C40.6854 52.726 40.7726 52.6325 40.8481 52.5298L50.5543 37H55C55.7954 36.9991 56.5579 36.6828 57.1204 36.1204C57.6828 35.5579 57.9991 34.7954 58 34V33C57.9991 32.2046 57.6828 31.4421 57.1204 30.8796C56.5579 30.3172 55.7954 30.0009 55 30ZM29 6C29 5.20435 29.3161 4.44129 29.8787 3.87868C30.4413 3.31607 31.2044 3 32 3C32.7956 3 33.5587 3.31607 34.1213 3.87868C34.6839 4.44129 35 5.20435 35 6C35 6.06836 34.9876 6.133 34.9832 6.19989C33.0033 5.93337 30.9967 5.93337 29.0168 6.19989C29.0124 6.133 29 6.06836 29 6ZM11 29C11 28.6625 11.0349 28.3337 11.0507 28H43C43.2652 28 43.5196 27.8946 43.7071 27.7071C43.8946 27.5196 44 27.2652 44 27C44 26.7348 43.8946 26.4804 43.7071 26.2929C43.5196 26.1054 43.2652 26 43 26H11.2396C11.9548 21.0037 14.4479 16.4329 18.2614 13.1264C22.0748 9.82001 26.9527 7.99977 32 7.99977C37.0473 7.99977 41.9252 9.82001 45.7386 13.1264C49.5521 16.4329 52.0452 21.0037 52.7604 26H47C46.7348 26 46.4804 26.1054 46.2929 26.2929C46.1054 26.4804 46 26.7348 46 27C46 27.2652 46.1054 27.5196 46.2929 27.7071C46.4804 27.8946 46.7348 28 47 28H52.9493C52.9651 28.3337 53 28.6625 53 29V30H11V29ZM14.894 53.4482C14.9638 53.3091 15.0001 53.1556 15 53V52.4702C15.0007 51.3151 15.3221 50.183 15.9282 49.1997C16.5443 48.215 17.4173 47.417 18.4531 46.8916C18.6477 46.7927 18.8046 46.6328 18.8998 46.4364C18.995 46.2399 19.0233 46.0177 18.9805 45.8037L17.2202 37H18.8999C19.8244 37.0003 20.7202 37.321 21.4349 37.9075C22.1495 38.494 22.6388 39.3101 22.8193 40.2168L23.8711 45.4541C24.0222 46.1734 24.4266 46.8146 25.0107 47.2607L27.8628 49.3945C28.3829 49.7882 29.0176 50.0008 29.6699 50H32.6299C33.235 49.9994 33.8257 49.8156 34.3244 49.4728C34.823 49.1301 35.2061 48.6443 35.4234 48.0796L39.0337 38.6978C39.2266 38.1997 39.565 37.7713 40.005 37.4684C40.4449 37.1656 40.9659 37.0023 41.5 37H42.7191L39.1177 51.4056L29.2005 58.6204L13.8407 55.5484L14.894 53.4482ZM23.3593 37H37.7024C37.4844 37.3036 37.3046 37.6329 37.167 37.9805L33.5542 47.3677C33.4822 47.5542 33.3553 47.7145 33.1903 47.8274C33.0252 47.9403 32.8298 48.0005 32.6299 48H29.6699C29.4529 48.002 29.2415 47.9313 29.0693 47.7993L26.2197 45.6675C26.0211 45.5155 25.8831 45.2977 25.8305 45.0532L24.7812 39.8271C24.5717 38.7735 24.0803 37.7964 23.3593 37ZM30 62H12V57.2197L30 60.8198V62ZM42.5043 46.1063L44.7809 37H48.1957L42.5043 46.1063ZM56 34C55.9997 34.2651 55.8942 34.5193 55.7067 34.7067C55.5193 34.8942 55.2651 34.9997 55 35H9C8.73489 34.9997 8.48073 34.8942 8.29327 34.7067C8.10581 34.5193 8.00034 34.2651 8 34V33C8.00034 32.7349 8.10581 32.4807 8.29327 32.2933C8.48073 32.1058 8.73489 32.0003 9 32H55C55.2651 32.0003 55.5193 32.1058 55.7067 32.2933C55.8942 32.4807 55.9997 32.7349 56 33V34Z" fill="white"/>
</svg>
